<svg xmlns="http://www.w3.org/2000/svg" viewBox="0 0 1040 871" width="1040" height="871" role="img" aria-label="Indigenous share by territory"><title>Indigenous share by territory</title><rect width="1040" height="871" fill="#fcfcfb"/><g class="mk"><title>Syria and Lebanon: 435 members, 1.4%</title><text x="290.0" y="16.3" text-anchor="end" font-size="11.0" fill="#52514e">Syria and Lebanon</text><rect x="300.0" y="4.0" width="666.0" height="15.0" rx="4" fill="#2a78d6"/><text x="973.0" y="16.3" text-anchor="start" font-size="10.5" fill="#52514e">1.4%</text></g><g class="mk"><title>Morocco: 4604 members, 1.1%</title><text x="290.0" y="41.3" text-anchor="end" font-size="11.0" fill="#52514e">Morocco</text><rect x="300.0" y="29.0" width="545.3" height="15.0" rx="4" fill="#2a78d6"/><text x="852.3" y="41.3" text-anchor="start" font-size="10.5" fill="#52514e">1.1%</text></g><g class="mk"><title>Indochina: 3392 members, 1.1%</title><text x="290.0" y="66.3" text-anchor="end" font-size="11.0" fill="#52514e">Indochina</text><rect x="300.0" y="54.0" width="540.5" height="15.0" rx="4" fill="#2a78d6"/><text x="847.5" y="66.3" text-anchor="start" font-size="10.5" fill="#52514e">1.1%</text></g><g class="mk"><title>Djibouti: 184 members, 1.1%</title><text x="290.0" y="91.3" text-anchor="end" font-size="11.0" fill="#52514e">Djibouti</text><rect x="300.0" y="79.0" width="526.0" height="15.0" rx="4" fill="#2a78d6"/><text x="833.0" y="91.3" text-anchor="start" font-size="10.5" fill="#52514e">1.1%</text></g><g class="mk"><title>New Hebrides (Melanesia): 95 members, 1.1%</title><text x="290.0" y="116.3" text-anchor="end" font-size="11.0" fill="#52514e">New Hebrides (Melanesia)</text><rect x="300.0" y="104.0" width="506.7" height="15.0" rx="4" fill="#2a78d6"/><text x="813.7" y="116.3" text-anchor="start" font-size="10.5" fill="#52514e">1.1%</text></g><g class="mk"><title>Egypt: 216 members, 0.5%</title><text x="290.0" y="141.3" text-anchor="end" font-size="11.0" fill="#52514e">Egypt</text><rect x="300.0" y="129.0" width="222.0" height="15.0" rx="4" fill="#2a78d6"/><text x="529.0" y="141.3" text-anchor="start" font-size="10.5" fill="#52514e">0.5%</text></g><g class="mk"><title>Senegal: 579 members, 0.4%</title><text x="290.0" y="166.3" text-anchor="end" font-size="11.0" fill="#52514e">Senegal</text><rect x="300.0" y="154.0" width="168.9" height="15.0" rx="4" fill="#2a78d6"/><text x="475.9" y="166.3" text-anchor="start" font-size="10.5" fill="#52514e">0.4%</text></g><g class="mk"><title>Tunisia: 1210 members, 0.2%</title><text x="290.0" y="191.3" text-anchor="end" font-size="11.0" fill="#52514e">Tunisia</text><rect x="300.0" y="179.0" width="120.7" height="15.0" rx="4" fill="#2a78d6"/><text x="427.7" y="191.3" text-anchor="start" font-size="10.5" fill="#52514e">0.2%</text></g><g class="mk"><title>Algeria: 2933 members, 0.2%</title><text x="290.0" y="216.3" text-anchor="end" font-size="11.0" fill="#52514e">Algeria</text><rect x="300.0" y="204.0" width="115.8" height="15.0" rx="4" fill="#2a78d6"/><text x="422.8" y="216.3" text-anchor="start" font-size="10.5" fill="#52514e">0.2%</text></g><g class="mk"><title>Empire (transversal): 4708 members, 0.1%</title><text x="290.0" y="241.3" text-anchor="end" font-size="11.0" fill="#52514e">Empire (transversal)</text><rect x="300.0" y="229.0" width="72.4" height="15.0" rx="4" fill="#2a78d6"/><text x="379.4" y="241.3" text-anchor="start" font-size="10.5" fill="#52514e">0.1%</text></g><g class="mk"><title>French West Africa: 2175 members, 0.1%</title><text x="290.0" y="266.3" text-anchor="end" font-size="11.0" fill="#52514e">French West Africa</text><rect x="300.0" y="254.0" width="67.6" height="15.0" rx="4" fill="#2a78d6"/><text x="374.6" y="266.3" text-anchor="start" font-size="10.5" fill="#52514e">0.1%</text></g><g class="mk"><title>Madagascar: 1350 members, 0.1%</title><text x="290.0" y="291.3" text-anchor="end" font-size="11.0" fill="#52514e">Madagascar</text><rect x="300.0" y="279.0" width="33.8" height="15.0" rx="4" fill="#2a78d6"/><text x="340.8" y="291.3" text-anchor="start" font-size="10.5" fill="#52514e">0.1%</text></g><g class="mk"><title>French Equatorial Africa: 1529 members, 0.0%</title><text x="290.0" y="316.3" text-anchor="end" font-size="11.0" fill="#52514e">French Equatorial Africa</text><rect x="300.0" y="304.0" width="2.0" height="15.0" rx="4" fill="#2a78d6"/><text x="309.0" y="316.3" text-anchor="start" font-size="10.5" fill="#52514e">0.0%</text></g><g class="mk"><title>Cameroon: 170 members, 0.0%</title><text x="290.0" y="341.3" text-anchor="end" font-size="11.0" fill="#52514e">Cameroon</text><rect x="300.0" y="329.0" width="2.0" height="15.0" rx="4" fill="#2a78d6"/><text x="309.0" y="341.3" text-anchor="start" font-size="10.5" fill="#52514e">0.0%</text></g><g class="mk"><title>China: 167 members, 0.0%</title><text x="290.0" y="366.3" text-anchor="end" font-size="11.0" fill="#52514e">China</text><rect x="300.0" y="354.0" width="2.0" height="15.0" rx="4" fill="#2a78d6"/><text x="309.0" y="366.3" text-anchor="start" font-size="10.5" fill="#52514e">0.0%</text></g><g class="mk"><title>Congo-Brazzaville (Middle Congo): 342 members, 0.0%</title><text x="290.0" y="391.3" text-anchor="end" font-size="11.0" fill="#52514e">Congo-Brazzaville (Middle Congo)</text><rect x="300.0" y="379.0" width="2.0" height="15.0" rx="4" fill="#2a78d6"/><text x="309.0" y="391.3" text-anchor="start" font-size="10.5" fill="#52514e">0.0%</text></g><g class="mk"><title>Ivory Coast: 631 members, 0.0%</title><text x="290.0" y="416.3" text-anchor="end" font-size="11.0" fill="#52514e">Ivory Coast</text><rect x="300.0" y="404.0" width="2.0" height="15.0" rx="4" fill="#2a78d6"/><text x="309.0" y="416.3" text-anchor="start" font-size="10.5" fill="#52514e">0.0%</text></g><g class="mk"><title>Dahomey (Benin): 102 members, 0.0%</title><text x="290.0" y="441.3" text-anchor="end" font-size="11.0" fill="#52514e">Dahomey (Benin)</text><rect x="300.0" y="429.0" width="2.0" height="15.0" rx="4" fill="#2a78d6"/><text x="309.0" y="441.3" text-anchor="start" font-size="10.5" fill="#52514e">0.0%</text></g><g class="mk"><title>Ottoman Empire / Turkey: 301 members, 0.0%</title><text x="290.0" y="466.3" text-anchor="end" font-size="11.0" fill="#52514e">Ottoman Empire / Turkey</text><rect x="300.0" y="454.0" width="2.0" height="15.0" rx="4" fill="#2a78d6"/><text x="309.0" y="466.3" text-anchor="start" font-size="10.5" fill="#52514e">0.0%</text></g><g class="mk"><title>Gabon: 341 members, 0.0%</title><text x="290.0" y="491.3" text-anchor="end" font-size="11.0" fill="#52514e">Gabon</text><rect x="300.0" y="479.0" width="2.0" height="15.0" rx="4" fill="#2a78d6"/><text x="309.0" y="491.3" text-anchor="start" font-size="10.5" fill="#52514e">0.0%</text></g><g class="mk"><title>Greece: 71 members, 0.0%</title><text x="290.0" y="516.3" text-anchor="end" font-size="11.0" fill="#52514e">Greece</text><rect x="300.0" y="504.0" width="2.0" height="15.0" rx="4" fill="#2a78d6"/><text x="309.0" y="516.3" text-anchor="start" font-size="10.5" fill="#52514e">0.0%</text></g><g class="mk"><title>Guadeloupe and Martinique: 183 members, 0.0%</title><text x="290.0" y="541.3" text-anchor="end" font-size="11.0" fill="#52514e">Guadeloupe and Martinique</text><rect x="300.0" y="529.0" width="2.0" height="15.0" rx="4" fill="#2a78d6"/><text x="309.0" y="541.3" text-anchor="start" font-size="10.5" fill="#52514e">0.0%</text></g><g class="mk"><title>Guinea (Conakry): 197 members, 0.0%</title><text x="290.0" y="566.3" text-anchor="end" font-size="11.0" fill="#52514e">Guinea (Conakry)</text><rect x="300.0" y="554.0" width="2.0" height="15.0" rx="4" fill="#2a78d6"/><text x="309.0" y="566.3" text-anchor="start" font-size="10.5" fill="#52514e">0.0%</text></g><g class="mk"><title>French Guiana: 267 members, 0.0%</title><text x="290.0" y="591.3" text-anchor="end" font-size="11.0" fill="#52514e">French Guiana</text><rect x="300.0" y="579.0" width="2.0" height="15.0" rx="4" fill="#2a78d6"/><text x="309.0" y="591.3" text-anchor="start" font-size="10.5" fill="#52514e">0.0%</text></g><g class="mk"><title>Java and Sumatra (Dutch East Indies): 168 members, 0.0%</title><text x="290.0" y="616.3" text-anchor="end" font-size="11.0" fill="#52514e">Java and Sumatra (Dutch East Indies)</text><rect x="300.0" y="604.0" width="2.0" height="15.0" rx="4" fill="#2a78d6"/><text x="309.0" y="616.3" text-anchor="start" font-size="10.5" fill="#52514e">0.0%</text></g><g class="mk"><title>Réunion: 141 members, 0.0%</title><text x="290.0" y="641.3" text-anchor="end" font-size="11.0" fill="#52514e">Réunion</text><rect x="300.0" y="629.0" width="2.0" height="15.0" rx="4" fill="#2a78d6"/><text x="309.0" y="641.3" text-anchor="start" font-size="10.5" fill="#52514e">0.0%</text></g><g class="mk"><title>Macedonia: 80 members, 0.0%</title><text x="290.0" y="666.3" text-anchor="end" font-size="11.0" fill="#52514e">Macedonia</text><rect x="300.0" y="654.0" width="2.0" height="15.0" rx="4" fill="#2a78d6"/><text x="309.0" y="666.3" text-anchor="start" font-size="10.5" fill="#52514e">0.0%</text></g><g class="mk"><title>Malaya: 128 members, 0.0%</title><text x="290.0" y="691.3" text-anchor="end" font-size="11.0" fill="#52514e">Malaya</text><rect x="300.0" y="679.0" width="2.0" height="15.0" rx="4" fill="#2a78d6"/><text x="309.0" y="691.3" text-anchor="start" font-size="10.5" fill="#52514e">0.0%</text></g><g class="mk"><title>Mozambique: 71 members, 0.0%</title><text x="290.0" y="716.3" text-anchor="end" font-size="11.0" fill="#52514e">Mozambique</text><rect x="300.0" y="704.0" width="2.0" height="15.0" rx="4" fill="#2a78d6"/><text x="309.0" y="716.3" text-anchor="start" font-size="10.5" fill="#52514e">0.0%</text></g><g class="mk"><title>New Caledonia (Melanesia): 366 members, 0.0%</title><text x="290.0" y="741.3" text-anchor="end" font-size="11.0" fill="#52514e">New Caledonia (Melanesia)</text><rect x="300.0" y="729.0" width="2.0" height="15.0" rx="4" fill="#2a78d6"/><text x="309.0" y="741.3" text-anchor="start" font-size="10.5" fill="#52514e">0.0%</text></g><g class="mk"><title>Ubangi-Shari (Central African Republic): 136 members, 0.0%</title><text x="290.0" y="766.3" text-anchor="end" font-size="11.0" fill="#52514e">Ubangi-Shari (Central African Republic)</text><rect x="300.0" y="754.0" width="2.0" height="15.0" rx="4" fill="#2a78d6"/><text x="309.0" y="766.3" text-anchor="start" font-size="10.5" fill="#52514e">0.0%</text></g><g class="mk"><title>French Sudan (Mali, Upper Volta / Burkina Faso, Niger): 184 members, 0.0%</title><text x="290.0" y="791.3" text-anchor="end" font-size="11.0" fill="#52514e">French Sudan (Mali, Upper Volta / Burkina Fa…</text><rect x="300.0" y="779.0" width="2.0" height="15.0" rx="4" fill="#2a78d6"/><text x="309.0" y="791.3" text-anchor="start" font-size="10.5" fill="#52514e">0.0%</text></g><g class="mk"><title>Tahiti (Polynesia): 142 members, 0.0%</title><text x="290.0" y="816.3" text-anchor="end" font-size="11.0" fill="#52514e">Tahiti (Polynesia)</text><rect x="300.0" y="804.0" width="2.0" height="15.0" rx="4" fill="#2a78d6"/><text x="309.0" y="816.3" text-anchor="start" font-size="10.5" fill="#52514e">0.0%</text></g><g font-size="11.5" font-family="ui-sans-serif,system-ui,sans-serif" fill="#8a8983"><text x="0" y="848.5">Share of board members carrying an indigenous name, for territories with at least 60 recorded members. 21 of them sit at 0.0%. The coding is onomastic: good for</text><text x="0" y="863.5">aggregate composition, never for a claim about a named individual.</text></g></svg>