<svg xmlns="http://www.w3.org/2000/svg" viewBox="0 0 1340 402" width="1340" height="402" role="img" aria-label="fig. 42 — Share of firms connected, by territory"><title>fig. 42 — Share of firms connected, by territory</title><rect width="1340" height="402" fill="#fcfcfb"/><g class="mk"><title>Ottoman Empire / Turkey: 27 / 44</title><text x="310.0" y="16.8" text-anchor="end" font-size="11.0" fill="#52514e">Ottoman Empire / Turkey  (44)</text><rect x="320.0" y="4.0" width="946.0" height="16.0" rx="4" fill="#2a78d6"/><text x="1273.0" y="16.8" text-anchor="start" font-size="10.5" fill="#52514e">61%</text></g><g class="mk"><title>Syria and Lebanon: 25 / 49</title><text x="310.0" y="42.8" text-anchor="end" font-size="11.0" fill="#52514e">Syria and Lebanon  (49)</text><rect x="320.0" y="30.0" width="786.6" height="16.0" rx="4" fill="#2a78d6"/><text x="1113.6" y="42.8" text-anchor="start" font-size="10.5" fill="#52514e">51%</text></g><g class="mk"><title>Gabon: 16 / 32</title><text x="310.0" y="68.8" text-anchor="end" font-size="11.0" fill="#52514e">Gabon  (32)</text><rect x="320.0" y="56.0" width="770.9" height="16.0" rx="4" fill="#2a78d6"/><text x="1097.9" y="68.8" text-anchor="start" font-size="10.5" fill="#52514e">50%</text></g><g class="mk"><title>French West Africa: 262 / 551</title><text x="310.0" y="94.8" text-anchor="end" font-size="11.0" fill="#52514e">French West Africa  (551)</text><rect x="320.0" y="82.0" width="733.1" height="16.0" rx="4" fill="#2a78d6"/><text x="1060.1" y="94.8" text-anchor="start" font-size="10.5" fill="#52514e">48%</text></g><g class="mk"><title>Indochina: 465 / 1,086</title><text x="310.0" y="120.8" text-anchor="end" font-size="11.0" fill="#52514e">Indochina  (1,086)</text><rect x="320.0" y="108.0" width="660.2" height="16.0" rx="4" fill="#2a78d6"/><text x="987.2" y="120.8" text-anchor="start" font-size="10.5" fill="#52514e">43%</text></g><g class="mk"><title>Algeria: 302 / 734</title><text x="310.0" y="146.8" text-anchor="end" font-size="11.0" fill="#52514e">Algeria  (734)</text><rect x="320.0" y="134.0" width="634.3" height="16.0" rx="4" fill="#2a78d6"/><text x="961.3" y="146.8" text-anchor="start" font-size="10.5" fill="#52514e">41%</text></g><g class="mk"><title>New Caledonia (Melanesia): 26 / 67</title><text x="310.0" y="172.8" text-anchor="end" font-size="11.0" fill="#52514e">New Caledonia (Melanesia)  (67)</text><rect x="320.0" y="160.0" width="598.3" height="16.0" rx="4" fill="#2a78d6"/><text x="925.3" y="172.8" text-anchor="start" font-size="10.5" fill="#52514e">39%</text></g><g class="mk"><title>French Guiana: 19 / 50</title><text x="310.0" y="198.8" text-anchor="end" font-size="11.0" fill="#52514e">French Guiana  (50)</text><rect x="320.0" y="186.0" width="585.9" height="16.0" rx="4" fill="#2a78d6"/><text x="912.9" y="198.8" text-anchor="start" font-size="10.5" fill="#52514e">38%</text></g><g class="mk"><title>French Equatorial Africa: 109 / 298</title><text x="310.0" y="224.8" text-anchor="end" font-size="11.0" fill="#52514e">French Equatorial Africa  (298)</text><rect x="320.0" y="212.0" width="564.0" height="16.0" rx="4" fill="#2a78d6"/><text x="891.0" y="224.8" text-anchor="start" font-size="10.5" fill="#52514e">37%</text></g><g class="mk"><title>Senegal: 12 / 34</title><text x="310.0" y="250.8" text-anchor="end" font-size="11.0" fill="#52514e">Senegal  (34)</text><rect x="320.0" y="238.0" width="544.1" height="16.0" rx="4" fill="#2a78d6"/><text x="871.1" y="250.8" text-anchor="start" font-size="10.5" fill="#52514e">35%</text></g><g class="mk"><title>Ivory Coast: 26 / 74</title><text x="310.0" y="276.8" text-anchor="end" font-size="11.0" fill="#52514e">Ivory Coast  (74)</text><rect x="320.0" y="264.0" width="541.8" height="16.0" rx="4" fill="#2a78d6"/><text x="868.8" y="276.8" text-anchor="start" font-size="10.5" fill="#52514e">35%</text></g><g class="mk"><title>Tunisia: 61 / 178</title><text x="310.0" y="302.8" text-anchor="end" font-size="11.0" fill="#52514e">Tunisia  (178)</text><rect x="320.0" y="290.0" width="528.3" height="16.0" rx="4" fill="#2a78d6"/><text x="855.3" y="302.8" text-anchor="start" font-size="10.5" fill="#52514e">34%</text></g><g class="mk"><title>Madagascar: 73 / 220</title><text x="310.0" y="328.8" text-anchor="end" font-size="11.0" fill="#52514e">Madagascar  (220)</text><rect x="320.0" y="316.0" width="511.5" height="16.0" rx="4" fill="#2a78d6"/><text x="838.5" y="328.8" text-anchor="start" font-size="10.5" fill="#52514e">33%</text></g><g class="mk"><title>Congo-Brazzaville (Middle Congo): 11 / 34</title><text x="310.0" y="354.8" text-anchor="end" font-size="11.0" fill="#52514e">Congo-Brazzaville (Middle Congo)  (34)</text><rect x="320.0" y="342.0" width="498.7" height="16.0" rx="4" fill="#2a78d6"/><text x="825.7" y="354.8" text-anchor="start" font-size="10.5" fill="#52514e">32%</text></g><g font-size="11.5" font-family="ui-sans-serif,system-ui,sans-serif" fill="#8a8983"><text x="0" y="379.5">Territories with at least 25 firms holding a board; the number in brackets is that denominator, because a share over 30 firms and a share over 800 are not the same measurement. These gaps track documentary</text><text x="0" y="394.5">coverage first: a territory the compiler read closely looks more connected, for reasons that have nothing to do with its firms. Not a rate.</text></g></svg>