<svg xmlns="http://www.w3.org/2000/svg" viewBox="0 0 1120 458" width="1120" height="458" role="img" aria-label="Djibouti interlock network"><title>Djibouti interlock network</title><rect width="1120" height="458" fill="#fcfcfb"/><g stroke="#c9c8c2" fill="none">
<path d="M544.0 276.0L535.8 310.7" stroke-width="2.00" stroke-opacity="0.620"/>
<path d="M544.0 276.0L574.3 274.5M544.0 276.0L588.2 305.9M535.8 310.7L574.3 274.5M574.3 274.5L588.2 305.9M583.9 203.4L580.6 134.2" stroke-width="1.44" stroke-opacity="0.520"/>
<path d="M544.0 276.0L566.2 332.0M544.0 276.0L616.9 274.4M535.8 310.7L588.2 305.9M535.8 310.7L566.2 332.0M574.3 274.5L583.9 203.4M566.2 332.0L588.2 305.9M616.9 274.4L588.2 305.9M616.9 274.4L583.9 203.4M580.6 134.2L642.1 107.5" stroke-width="1.16" stroke-opacity="0.400"/>
<path d="M544.0 276.0L583.9 203.4M535.8 310.7L616.9 274.4M566.2 332.0L616.9 274.4M588.2 305.9L583.9 203.4M583.9 203.4L642.1 107.5M499.1 245.0L477.9 330.1" stroke-width="0.88" stroke-opacity="0.280"/>
<path d="M544.0 276.0L499.1 245.0M544.0 276.0L477.9 330.1M535.8 310.7L499.1 245.0M535.8 310.7L477.9 330.1M535.8 310.7L583.9 203.4M574.3 274.5L499.1 245.0M574.3 274.5L477.9 330.1M566.2 332.0L499.1 245.0M566.2 332.0L477.9 330.1M566.2 332.0L583.9 203.4M588.2 305.9L499.1 245.0M588.2 305.9L477.9 330.1M583.9 203.4L499.1 245.0M583.9 203.4L545.5 30.0M580.6 134.2L499.1 245.0M553.5 391.0L579.5 391.0M579.5 391.0L540.5 391.0M540.5 391.0L566.5 391.0" stroke-width="0.60" stroke-opacity="0.160"/>
<path d="M574.3 274.5L566.2 332.0M574.3 274.5L616.9 274.4" stroke-width="1.72" stroke-opacity="0.620"/>
</g>
<g>
<circle class="nd" data-id="approvisionnementsgenerauxdjibouti" cx="544.0" cy="276.0" r="17.33" fill="#2a78d6" stroke="#fcfcfb" stroke-width="2"/>
<circle class="nd" data-id="maritimeafriqueorientale" cx="535.8" cy="310.7" r="16.46" fill="#2a78d6" stroke="#fcfcfb" stroke-width="2"/>
<circle class="nd" data-id="afriqueorientale" cx="574.3" cy="274.5" r="18.15" fill="#2a78d6" stroke="#fcfcfb" stroke-width="2"/>
<circle class="nd" data-id="navigationmerrouge" cx="566.2" cy="332.0" r="15.84" fill="#2a78d6" stroke="#fcfcfb" stroke-width="2"/>
<circle class="nd" data-id="afriqueorientalemaritimecommerciale" cx="616.9" cy="274.4" r="15.52" fill="#2a78d6" stroke="#fcfcfb" stroke-width="2"/>
<circle class="nd" data-id="cotesomalis" cx="588.2" cy="305.9" r="16.46" fill="#2a78d6" stroke="#fcfcfb" stroke-width="2"/>
<circle class="nd" data-id="industrielledjibouti" cx="583.9" cy="203.4" r="16.15" fill="#2a78d6" stroke="#fcfcfb" stroke-width="2"/>
<circle class="nd" data-id="salinesdjibouti" cx="580.6" cy="134.2" r="11.53" fill="#2a78d6" stroke="#fcfcfb" stroke-width="2"/>
<circle class="nd" data-id="salinesdjiboutisfaxmadagascar" cx="642.1" cy="107.5" r="9.79" fill="#2a78d6" stroke="#fcfcfb" stroke-width="2"/>
<circle class="nd" data-id="cheminferfrancoethiopiendjiboutiaddisabeba" cx="499.1" cy="245.0" r="12.03" fill="#2a78d6" stroke="#fcfcfb" stroke-width="2"/>
<circle class="nd" data-id="commercialeabyssinie" cx="477.9" cy="330.1" r="11.01" fill="#2a78d6" stroke="#fcfcfb" stroke-width="2"/>
<circle class="nd" data-id="creditindustrielafricain" cx="553.5" cy="391.0" r="4.40" fill="#2a78d6" stroke="#fcfcfb" stroke-width="2"/>
<circle class="nd" data-id="salinsmidisalinesdjibouti" cx="579.5" cy="391.0" r="7.10" fill="#2a78d6" stroke="#fcfcfb" stroke-width="2"/>
<circle class="nd" data-id="africainecommercerepresentation" cx="540.5" cy="391.0" r="7.10" fill="#2a78d6" stroke="#fcfcfb" stroke-width="2"/>
<circle class="nd" data-id="minassian" cx="566.5" cy="391.0" r="4.40" fill="#2a78d6" stroke="#fcfcfb" stroke-width="2"/>
<circle class="nd" data-id="imperialecheminsferethiopiens" cx="545.5" cy="30.0" r="4.40" fill="#2a78d6" stroke="#fcfcfb" stroke-width="2"/>
</g>
<line x1="218.0" y1="172.6" x2="486.1" y2="245.0" stroke="#8a8983" stroke-width="0.6" stroke-opacity="0.55"/>
<line x1="218.0" y1="189.6" x2="525.6" y2="276.0" stroke="#8a8983" stroke-width="0.6" stroke-opacity="0.55"/>
<line x1="218.0" y1="206.6" x2="518.4" y2="310.7" stroke="#8a8983" stroke-width="0.6" stroke-opacity="0.55"/>
<line x1="218.0" y1="223.6" x2="465.8" y2="330.1" stroke="#8a8983" stroke-width="0.6" stroke-opacity="0.55"/>
<line x1="218.0" y1="240.7" x2="549.4" y2="332.0" stroke="#8a8983" stroke-width="0.6" stroke-opacity="0.55"/>
<line x1="902.0" y1="164.1" x2="652.9" y2="107.5" stroke="#8a8983" stroke-width="0.6" stroke-opacity="0.55"/>
<line x1="902.0" y1="181.1" x2="593.2" y2="134.2" stroke="#8a8983" stroke-width="0.6" stroke-opacity="0.55"/>
<line x1="902.0" y1="198.1" x2="601.1" y2="203.4" stroke="#8a8983" stroke-width="0.6" stroke-opacity="0.55"/>
<line x1="902.0" y1="215.1" x2="633.4" y2="274.4" stroke="#8a8983" stroke-width="0.6" stroke-opacity="0.55"/>
<line x1="902.0" y1="232.2" x2="593.5" y2="274.5" stroke="#8a8983" stroke-width="0.6" stroke-opacity="0.55"/>
<line x1="902.0" y1="249.2" x2="605.7" y2="305.9" stroke="#8a8983" stroke-width="0.6" stroke-opacity="0.55"/>
<g font-size="10.5" font-family="ui-sans-serif,system-ui,sans-serif" fill="#0b0b0b">
<text x="222.0" y="176.0" text-anchor="end">Compagnie du Chemin de fer franco…</text>
<text x="222.0" y="193.0" text-anchor="end">Société d’Approvisionnements génér…</text>
<text x="222.0" y="210.0" text-anchor="end">Compagnie Maritime de l&#x27;Afrique Ori…</text>
<text x="222.0" y="227.0" text-anchor="end">Société Commerciale d’Abyssinie</text>
<text x="222.0" y="244.0" text-anchor="end">Compagnie française de Navigation…</text>
<text x="898.0" y="167.5" text-anchor="start">Salines de Djibouti, Sfax et Madagasc…</text>
<text x="898.0" y="184.5" text-anchor="start">Société des salines de Djibouti</text>
<text x="898.0" y="201.5" text-anchor="start">Société Industrielle de Djibouti</text>
<text x="898.0" y="218.5" text-anchor="start">Cie de l&#x27;AFRIQUE ORIENTALE MAR…</text>
<text x="898.0" y="235.5" text-anchor="start">Compagnie de l&#x27;Afrique Orientale</text>
<text x="898.0" y="252.5" text-anchor="start">Compagnie française de la Côte des…</text>
</g><line x1="40" y1="368" x2="1080" y2="368" stroke="#e6e5e1" stroke-width="1"/><text x="1080" y="363" text-anchor="end" font-size="11" font-family="ui-sans-serif,system-ui,sans-serif" fill="#8a8983">4 firms in 1 component unconnected to the main graph</text><g font-size="11.5" font-family="ui-sans-serif,system-ui,sans-serif" fill="#8a8983"><text x="0" y="435.5">16 firms, 41 interlocks, 2 components (largest 12). Node area is weighted degree; the 11 best-connected are labelled. The other 9 firms in this territory&#x27;s bundle share no director</text><text x="0" y="450.5">with another and so have no place in an interlock network.</text></g></svg>