<svg xmlns="http://www.w3.org/2000/svg" viewBox="0 0 1120 678" width="1120" height="678" role="img" aria-label="Gabon interlock network"><title>Gabon interlock network</title><rect width="1120" height="678" fill="#fcfcfb"/><g stroke="#c9c8c2" fill="none">
<path d="M547.0 611.0L573.0 611.0M653.8 248.0L642.5 284.4" stroke-width="2.00" stroke-opacity="0.620"/>
<path d="M547.0 611.0L560.0 611.0M573.0 611.0L560.0 611.0M653.8 248.0L666.1 204.3M642.5 284.4L695.9 346.8M571.1 524.5L582.0 454.8M695.9 346.8L762.0 373.6M595.2 161.7L595.9 94.0M780.6 136.1L716.7 187.6" stroke-width="1.16" stroke-opacity="0.400"/>
<path d="M653.8 248.0L614.6 244.0M653.8 248.0L600.7 320.2M642.5 284.4L724.3 262.3M642.5 284.4L614.6 244.0M642.5 284.4L679.7 391.0M642.5 284.4L675.6 365.4M553.4 548.5L582.0 454.8M679.7 391.0L695.9 346.8M587.6 552.0L582.0 454.8M614.6 244.0L666.1 204.3M666.1 204.3L716.7 187.6M500.3 409.8L583.9 389.7M339.4 173.0L355.7 135.7" stroke-width="0.88" stroke-opacity="0.280"/>
<path d="M653.8 248.0L724.3 262.3M653.8 248.0L637.7 151.8M653.8 248.0L716.7 187.6M642.5 284.4L666.1 204.3M642.5 284.4L716.7 187.6M642.5 284.4L600.7 320.2M642.5 284.4L595.2 161.7M642.5 284.4L583.9 389.7M642.5 284.4L455.6 203.5M679.7 391.0L583.9 389.7M716.5 434.3L675.6 365.4M695.9 346.8L583.9 389.7M675.6 365.4L762.0 373.6M675.6 365.4L583.9 389.7M614.6 244.0L582.0 454.8M614.6 244.0L600.7 320.2M614.6 244.0L637.7 151.8M614.6 244.0L716.7 187.6M595.2 161.7L637.7 151.8M595.2 161.7L562.7 30.0M582.0 454.8L600.7 320.2M666.1 204.3L637.7 151.8M595.9 94.0L637.7 151.8M583.9 389.7L466.7 463.0M339.4 173.0L455.6 203.5M355.7 135.7L455.6 203.5" stroke-width="0.60" stroke-opacity="0.160"/>
<path d="M571.1 524.5L553.4 548.5M679.7 391.0L716.5 434.3" stroke-width="1.72" stroke-opacity="0.620"/>
<path d="M571.1 524.5L587.6 552.0M553.4 548.5L587.6 552.0M679.7 391.0L675.6 365.4M695.9 346.8L675.6 365.4M614.6 244.0L595.2 161.7" stroke-width="1.44" stroke-opacity="0.520"/>
</g>
<g>
<circle class="nd" data-id="commercialeindustrielleagricolehautogooue" cx="547.0" cy="611.0" r="15.05" fill="#2a78d6" stroke="#fcfcfb" stroke-width="2"/>
<circle class="nd" data-id="hautogooue" cx="573.0" cy="611.0" r="15.05" fill="#2a78d6" stroke="#fcfcfb" stroke-width="2"/>
<circle class="nd" data-id="exploitationsforestieresafricaines" cx="653.8" cy="248.0" r="16.07" fill="#2a78d6" stroke="#fcfcfb" stroke-width="2"/>
<circle class="nd" data-id="plantationspalmeraiesogooue" cx="642.5" cy="284.4" r="18.15" fill="#2a78d6" stroke="#fcfcfb" stroke-width="2"/>
<circle class="nd" data-id="africaine" cx="571.1" cy="524.5" r="13.52" fill="#2a78d6" stroke="#fcfcfb" stroke-width="2"/>
<circle class="nd" data-id="equatoriale" cx="553.4" cy="548.5" r="13.10" fill="#2a78d6" stroke="#fcfcfb" stroke-width="2"/>
<circle class="nd" data-id="forestiereabanga" cx="679.7" cy="391.0" r="14.32" fill="#2a78d6" stroke="#fcfcfb" stroke-width="2"/>
<circle class="nd" data-id="unioncolonialeagricoleforestiere" cx="716.5" cy="434.3" r="10.55" fill="#2a78d6" stroke="#fcfcfb" stroke-width="2"/>
<circle class="nd" data-id="hautebokoue" cx="695.9" cy="346.8" r="13.93" fill="#2a78d6" stroke="#fcfcfb" stroke-width="2"/>
<circle class="nd" data-id="unionforestiereafricaine" cx="675.6" cy="365.4" r="13.93" fill="#2a78d6" stroke="#fcfcfb" stroke-width="2"/>
<circle class="nd" data-id="forestiereezanga" cx="587.6" cy="552.0" r="12.65" fill="#2a78d6" stroke="#fcfcfb" stroke-width="2"/>
<circle class="nd" data-id="agricoleforestiereindustrielleafrique" cx="614.6" cy="244.0" r="14.32" fill="#2a78d6" stroke="#fcfcfb" stroke-width="2"/>
<circle class="nd" data-id="hautengounie" cx="595.2" cy="161.7" r="12.65" fill="#2a78d6" stroke="#fcfcfb" stroke-width="2"/>
<circle class="nd" data-id="agricolegabon" cx="762.0" cy="373.6" r="9.16" fill="#2a78d6" stroke="#fcfcfb" stroke-width="2"/>
<circle class="nd" data-id="commercialeafriqueequatoriale" cx="582.0" cy="454.8" r="12.18" fill="#2a78d6" stroke="#fcfcfb" stroke-width="2"/>
<circle class="nd" data-id="colonialecommerceindustrie" cx="666.1" cy="204.3" r="12.18" fill="#2a78d6" stroke="#fcfcfb" stroke-width="2"/>
<circle class="nd" data-id="hautengounle" cx="595.9" cy="94.0" r="9.16" fill="#2a78d6" stroke="#fcfcfb" stroke-width="2"/>
<circle class="nd" data-id="gabonaiseentreprisestransports" cx="560.0" cy="611.0" r="10.55" fill="#2a78d6" stroke="#fcfcfb" stroke-width="2"/>
<circle class="nd" data-id="frsecongocameroun" cx="780.6" cy="136.1" r="8.29" fill="#2a78d6" stroke="#fcfcfb" stroke-width="2"/>
<circle class="nd" data-id="ngokosangha" cx="716.7" cy="187.6" r="11.68" fill="#2a78d6" stroke="#fcfcfb" stroke-width="2"/>
<circle class="nd" data-id="africaineplacagesportgentil" cx="724.3" cy="262.3" r="8.29" fill="#2a78d6" stroke="#fcfcfb" stroke-width="2"/>
<circle class="nd" data-id="plantationsogooue" cx="600.7" cy="320.2" r="9.90" fill="#2a78d6" stroke="#fcfcfb" stroke-width="2"/>
<circle class="nd" data-id="agricolecommercialebasogoue" cx="500.3" cy="409.8" r="7.15" fill="#2a78d6" stroke="#fcfcfb" stroke-width="2"/>
<circle class="nd" data-id="colonialegabon" cx="583.9" cy="389.7" r="11.14" fill="#2a78d6" stroke="#fcfcfb" stroke-width="2"/>
<circle class="nd" data-id="forestierelittoralgabonaisekuata" cx="339.4" cy="173.0" r="8.29" fill="#2a78d6" stroke="#fcfcfb" stroke-width="2"/>
<circle class="nd" data-id="forestierelittoralgabonnais" cx="355.7" cy="135.7" r="8.29" fill="#2a78d6" stroke="#fcfcfb" stroke-width="2"/>
<circle class="nd" data-id="gabon" cx="637.7" cy="151.8" r="9.90" fill="#2a78d6" stroke="#fcfcfb" stroke-width="2"/>
<circle class="nd" data-id="fermiereogoue" cx="466.7" cy="463.0" r="4.40" fill="#2a78d6" stroke="#fcfcfb" stroke-width="2"/>
<circle class="nd" data-id="agricolecommercialesettecama" cx="562.7" cy="30.0" r="4.40" fill="#2a78d6" stroke="#fcfcfb" stroke-width="2"/>
<circle class="nd" data-id="multiplex" cx="455.6" cy="203.5" r="8.29" fill="#2a78d6" stroke="#fcfcfb" stroke-width="2"/>
</g>
<line x1="218.0" y1="282.6" x2="556.6" y2="524.5" stroke="#8a8983" stroke-width="0.6" stroke-opacity="0.55"/>
<line x1="218.0" y1="299.6" x2="539.3" y2="548.5" stroke="#8a8983" stroke-width="0.6" stroke-opacity="0.55"/>
<line x1="218.0" y1="316.6" x2="574.0" y2="552.0" stroke="#8a8983" stroke-width="0.6" stroke-opacity="0.55"/>
<line x1="218.0" y1="333.6" x2="530.9" y2="611.0" stroke="#8a8983" stroke-width="0.6" stroke-opacity="0.55"/>
<line x1="218.0" y1="350.7" x2="556.9" y2="611.0" stroke="#8a8983" stroke-width="0.6" stroke-opacity="0.55"/>
<line x1="902.0" y1="274.1" x2="629.9" y2="244.0" stroke="#8a8983" stroke-width="0.6" stroke-opacity="0.55"/>
<line x1="902.0" y1="291.1" x2="670.9" y2="248.0" stroke="#8a8983" stroke-width="0.6" stroke-opacity="0.55"/>
<line x1="902.0" y1="308.1" x2="661.7" y2="284.4" stroke="#8a8983" stroke-width="0.6" stroke-opacity="0.55"/>
<line x1="902.0" y1="325.1" x2="710.9" y2="346.8" stroke="#8a8983" stroke-width="0.6" stroke-opacity="0.55"/>
<line x1="902.0" y1="342.2" x2="690.5" y2="365.4" stroke="#8a8983" stroke-width="0.6" stroke-opacity="0.55"/>
<line x1="902.0" y1="359.2" x2="695.1" y2="391.0" stroke="#8a8983" stroke-width="0.6" stroke-opacity="0.55"/>
<g font-size="10.5" font-family="ui-sans-serif,system-ui,sans-serif" fill="#0b0b0b">
<text x="222.0" y="286.0" text-anchor="end">L&#x27;Africaine</text>
<text x="222.0" y="303.0" text-anchor="end">L&#x27;Équatoriale</text>
<text x="222.0" y="320.0" text-anchor="end">Société Forestière d&#x27;Ezanga</text>
<text x="222.0" y="337.0" text-anchor="end">Société commerciale, industrielle et…</text>
<text x="222.0" y="354.0" text-anchor="end">HAUT-OGOOUÉ</text>
<text x="898.0" y="277.5" text-anchor="start">Société Agricole, Forestière et Ind…</text>
<text x="898.0" y="294.5" text-anchor="start">Compagnie Exploitations forestières…</text>
<text x="898.0" y="311.5" text-anchor="start">Cie générale des Plantations et palm…</text>
<text x="898.0" y="328.5" text-anchor="start">Société de la Haute-Bokoué</text>
<text x="898.0" y="345.5" text-anchor="start">Union forestière africaine</text>
<text x="898.0" y="362.5" text-anchor="start">Compagnie Forestière de l&#x27;Abanga</text>
</g><line x1="40" y1="588" x2="1080" y2="588" stroke="#e6e5e1" stroke-width="1"/><text x="1080" y="583" text-anchor="end" font-size="11" font-family="ui-sans-serif,system-ui,sans-serif" fill="#8a8983">3 firms in 1 component unconnected to the main graph</text><g font-size="11.5" font-family="ui-sans-serif,system-ui,sans-serif" fill="#8a8983"><text x="0" y="655.5">30 firms, 56 interlocks, 2 components (largest 27). Node area is weighted degree; the 11 best-connected are labelled. The other 14 firms in this territory&#x27;s bundle share no director</text><text x="0" y="670.5">with another and so have no place in an interlock network.</text></g></svg>