<svg xmlns="http://www.w3.org/2000/svg" viewBox="0 0 1120 678" width="1120" height="678" role="img" aria-label="Sénégal interlock network"><title>Sénégal interlock network</title><rect width="1120" height="678" fill="#fcfcfb"/><g stroke="#c9c8c2" fill="none">
<path d="M683.3 193.6L705.5 177.7M558.5 354.9L571.7 348.2M571.9 165.1L552.5 169.4" stroke-width="2.00" stroke-opacity="0.620"/>
<path d="M683.3 193.6L610.7 229.4M683.3 193.6L698.5 160.4M705.5 177.7L698.5 160.4M571.9 165.1L575.7 193.5M610.7 229.4L575.7 193.5M610.7 229.4L581.4 327.6M667.9 351.8L652.7 385.6M652.4 351.2L721.1 414.1M652.4 351.2L680.4 384.0M652.4 351.2L635.9 315.1M652.7 385.6L680.4 384.0M652.7 385.6L649.3 416.7M652.7 385.6L618.4 389.1M618.4 389.1L635.9 315.1M721.1 414.1L759.0 461.2M721.1 414.1L774.1 443.3M759.0 461.2L774.1 443.3M649.3 416.7L628.2 418.6M635.9 315.1L613.8 305.0" stroke-width="0.88" stroke-opacity="0.280"/>
<path d="M683.3 193.6L698.9 265.8M558.5 354.9L581.4 327.6M558.5 354.9L511.2 334.7M558.5 354.9L652.4 351.2M571.7 348.2L652.4 351.2M571.9 165.1L529.8 66.8M552.5 169.4L610.7 229.4M332.2 539.0L386.0 493.8M345.7 552.0L386.0 493.8M741.4 348.0L652.4 351.2M736.3 329.2L652.4 351.2M610.7 229.4L652.4 351.2M610.7 229.4L635.9 315.1M610.7 229.4L651.2 274.3M610.7 229.4L660.1 230.0M610.7 229.4L625.6 148.1M610.7 229.4L605.6 144.8M667.9 351.8L581.4 327.6M667.9 351.8L721.1 414.1M667.9 351.8L651.2 274.3M667.9 351.8L680.4 384.0M667.9 351.8L701.4 374.6M652.4 351.2L581.4 327.6M652.4 351.2L701.4 374.6M652.4 351.2L649.3 416.7M652.4 351.2L628.2 418.6M652.4 351.2L698.9 265.8M652.4 351.2L613.8 305.0M652.7 385.6L581.4 327.6M652.7 385.6L721.1 414.1M652.7 385.6L701.4 374.6M652.7 385.6L628.2 418.6M652.7 385.6L635.9 315.1M652.7 385.6L666.5 474.7M582.9 467.8L618.4 389.1M565.6 454.9L618.4 389.1M618.4 389.1L649.3 416.7M618.4 389.1L628.2 418.6M721.1 414.1L787.8 470.5M759.0 461.2L787.8 470.5M774.1 443.3L787.8 470.5M581.4 327.6L511.2 334.7M581.4 327.6L470.4 412.5M680.4 384.0L701.4 374.6M698.5 160.4L660.1 230.0M635.9 315.1L651.2 274.3M635.9 315.1L660.1 230.0M470.4 412.5L386.0 493.8M287.0 611.0L313.0 611.0M287.0 611.0L300.0 611.0M813.5 611.0L826.5 611.0M651.2 274.3L660.1 230.0" stroke-width="0.60" stroke-opacity="0.160"/>
<path d="M571.9 165.1L610.7 229.4M667.9 351.8L652.4 351.2M652.4 351.2L652.7 385.6M652.4 351.2L618.4 389.1M582.9 467.8L565.6 454.9M625.6 148.1L605.6 144.8" stroke-width="1.16" stroke-opacity="0.400"/>
<path d="M332.2 539.0L345.7 552.0" stroke-width="1.72" stroke-opacity="0.620"/>
<path d="M514.5 30.0L529.8 66.8M741.4 348.0L736.3 329.2" stroke-width="1.44" stroke-opacity="0.520"/>
</g>
<g>
<circle class="nd" data-id="minesfaleme" cx="683.3" cy="193.6" r="15.05" fill="#2a78d6" stroke="#fcfcfb" stroke-width="2"/>
<circle class="nd" data-id="minesfalemegambie" cx="705.5" cy="177.7" r="13.93" fill="#2a78d6" stroke="#fcfcfb" stroke-width="2"/>
<circle class="nd" data-id="cheminferdakarsaintlouis" cx="558.5" cy="354.9" r="12.65" fill="#2a78d6" stroke="#fcfcfb" stroke-width="2"/>
<circle class="nd" data-id="cheminferdakarstlouis" cx="571.7" cy="348.2" r="11.68" fill="#2a78d6" stroke="#fcfcfb" stroke-width="2"/>
<circle class="nd" data-id="banquecommercialeafricaine" cx="571.9" cy="165.1" r="13.52" fill="#2a78d6" stroke="#fcfcfb" stroke-width="2"/>
<circle class="nd" data-id="immobilierefinanciereafricaine" cx="552.5" cy="169.4" r="11.14" fill="#2a78d6" stroke="#fcfcfb" stroke-width="2"/>
<circle class="nd" data-id="commerceafricain" cx="332.2" cy="539.0" r="10.55" fill="#2a78d6" stroke="#fcfcfb" stroke-width="2"/>
<circle class="nd" data-id="lesieurafrique" cx="345.7" cy="552.0" r="10.55" fill="#2a78d6" stroke="#fcfcfb" stroke-width="2"/>
<circle class="nd" data-id="huileriesrizeriesouestafricaines" cx="514.5" cy="30.0" r="9.16" fill="#2a78d6" stroke="#fcfcfb" stroke-width="2"/>
<circle class="nd" data-id="silicocalcaireafricaine" cx="529.8" cy="66.8" r="9.90" fill="#2a78d6" stroke="#fcfcfb" stroke-width="2"/>
<circle class="nd" data-id="commercialeafricaine" cx="741.4" cy="348.0" r="9.90" fill="#2a78d6" stroke="#fcfcfb" stroke-width="2"/>
<circle class="nd" data-id="commercialeafricainesuitepascalbuhan" cx="736.3" cy="329.2" r="9.90" fill="#2a78d6" stroke="#fcfcfb" stroke-width="2"/>
<circle class="nd" data-id="creditfoncierouestafricain" cx="610.7" cy="229.4" r="15.05" fill="#2a78d6" stroke="#fcfcfb" stroke-width="2"/>
<circle class="nd" data-id="electricitesenegal" cx="667.9" cy="351.8" r="12.65" fill="#2a78d6" stroke="#fcfcfb" stroke-width="2"/>
<circle class="nd" data-id="messageriesafricaines" cx="652.4" cy="351.2" r="18.15" fill="#2a78d6" stroke="#fcfcfb" stroke-width="2"/>
<circle class="nd" data-id="salinssinesaloum" cx="652.7" cy="385.6" r="15.40" fill="#2a78d6" stroke="#fcfcfb" stroke-width="2"/>
<circle class="nd" data-id="brasseriesouestafricain" cx="582.9" cy="467.8" r="9.16" fill="#2a78d6" stroke="#fcfcfb" stroke-width="2"/>
<circle class="nd" data-id="hoteliereouestafricainchoa" cx="565.6" cy="454.9" r="9.16" fill="#2a78d6" stroke="#fcfcfb" stroke-width="2"/>
<circle class="nd" data-id="creditfoncierafrique" cx="625.6" cy="148.1" r="9.16" fill="#2a78d6" stroke="#fcfcfb" stroke-width="2"/>
<circle class="nd" data-id="foncierecoteafrique" cx="605.6" cy="144.8" r="9.16" fill="#2a78d6" stroke="#fcfcfb" stroke-width="2"/>
<circle class="nd" data-id="messageriessenegal" cx="618.4" cy="389.1" r="13.10" fill="#2a78d6" stroke="#fcfcfb" stroke-width="2"/>
<circle class="nd" data-id="creditfoncierafriqueequatorialebrazzaville" cx="575.7" cy="193.5" r="9.16" fill="#2a78d6" stroke="#fcfcfb" stroke-width="2"/>
<circle class="nd" data-id="chauxcimentssenegal" cx="721.1" cy="414.1" r="12.18" fill="#2a78d6" stroke="#fcfcfb" stroke-width="2"/>
<circle class="nd" data-id="fonciereouestafricain" cx="759.0" cy="461.2" r="9.90" fill="#2a78d6" stroke="#fcfcfb" stroke-width="2"/>
<circle class="nd" data-id="immobilierethies" cx="774.1" cy="443.3" r="9.90" fill="#2a78d6" stroke="#fcfcfb" stroke-width="2"/>
<circle class="nd" data-id="banqueafriqueoccidentale" cx="581.4" cy="327.6" r="11.68" fill="#2a78d6" stroke="#fcfcfb" stroke-width="2"/>
<circle class="nd" data-id="industrielleafricaine" cx="680.4" cy="384.0" r="10.55" fill="#2a78d6" stroke="#fcfcfb" stroke-width="2"/>
<circle class="nd" data-id="minessenegambie" cx="698.5" cy="160.4" r="9.90" fill="#2a78d6" stroke="#fcfcfb" stroke-width="2"/>
<circle class="nd" data-id="manutentionafricaine" cx="649.3" cy="416.7" r="10.55" fill="#2a78d6" stroke="#fcfcfb" stroke-width="2"/>
<circle class="nd" data-id="unionsenegalaiseindustriesmaritimes" cx="628.2" cy="418.6" r="9.90" fill="#2a78d6" stroke="#fcfcfb" stroke-width="2"/>
<circle class="nd" data-id="commercialeportsafricains" cx="635.9" cy="315.1" r="12.65" fill="#2a78d6" stroke="#fcfcfb" stroke-width="2"/>
<circle class="nd" data-id="commercialeportsafricainsdakarabidjandoualamanutentionconsignationtransitcharbons" cx="613.8" cy="305.0" r="8.29" fill="#2a78d6" stroke="#fcfcfb" stroke-width="2"/>
<circle class="nd" data-id="africainesisaloyenbamparrufisque" cx="787.8" cy="470.5" r="8.29" fill="#2a78d6" stroke="#fcfcfb" stroke-width="2"/>
<circle class="nd" data-id="banquesenegal" cx="511.2" cy="334.7" r="7.15" fill="#2a78d6" stroke="#fcfcfb" stroke-width="2"/>
<circle class="nd" data-id="senegalaisevoieseconomiques" cx="470.4" cy="412.5" r="7.15" fill="#2a78d6" stroke="#fcfcfb" stroke-width="2"/>
<circle class="nd" data-id="colonialechauxcimentsof" cx="287.0" cy="611.0" r="7.15" fill="#2a78d6" stroke="#fcfcfb" stroke-width="2"/>
<circle class="nd" data-id="travauxafricains" cx="313.0" cy="611.0" r="4.40" fill="#2a78d6" stroke="#fcfcfb" stroke-width="2"/>
<circle class="nd" data-id="colonialesac" cx="300.0" cy="611.0" r="4.40" fill="#2a78d6" stroke="#fcfcfb" stroke-width="2"/>
<circle class="nd" data-id="colonialeautomobile" cx="813.5" cy="611.0" r="4.40" fill="#2a78d6" stroke="#fcfcfb" stroke-width="2"/>
<circle class="nd" data-id="etablissementsvincentgoux" cx="826.5" cy="611.0" r="4.40" fill="#2a78d6" stroke="#fcfcfb" stroke-width="2"/>
<circle class="nd" data-id="etablissementsbartheslesieur" cx="386.0" cy="493.8" r="8.29" fill="#2a78d6" stroke="#fcfcfb" stroke-width="2"/>
<circle class="nd" data-id="eauxelectriciteouestafricain" cx="651.2" cy="274.3" r="9.16" fill="#2a78d6" stroke="#fcfcfb" stroke-width="2"/>
<circle class="nd" data-id="salinscapvert" cx="660.1" cy="230.0" r="9.16" fill="#2a78d6" stroke="#fcfcfb" stroke-width="2"/>
<circle class="nd" data-id="senegal" cx="701.4" cy="374.6" r="9.16" fill="#2a78d6" stroke="#fcfcfb" stroke-width="2"/>
<circle class="nd" data-id="plantationscasamance" cx="698.9" cy="265.8" r="7.15" fill="#2a78d6" stroke="#fcfcfb" stroke-width="2"/>
<circle class="nd" data-id="senegalaisecultureslatemengue" cx="666.5" cy="474.7" r="4.40" fill="#2a78d6" stroke="#fcfcfb" stroke-width="2"/>
</g>
<line x1="218.0" y1="282.6" x2="557.3" y2="165.1" stroke="#8a8983" stroke-width="0.6" stroke-opacity="0.55"/>
<line x1="218.0" y1="299.6" x2="594.6" y2="229.4" stroke="#8a8983" stroke-width="0.6" stroke-opacity="0.55"/>
<line x1="218.0" y1="316.6" x2="622.2" y2="315.1" stroke="#8a8983" stroke-width="0.6" stroke-opacity="0.55"/>
<line x1="218.0" y1="333.6" x2="544.9" y2="354.9" stroke="#8a8983" stroke-width="0.6" stroke-opacity="0.55"/>
<line x1="218.0" y1="350.7" x2="604.3" y2="389.1" stroke="#8a8983" stroke-width="0.6" stroke-opacity="0.55"/>
<line x1="902.0" y1="274.1" x2="720.4" y2="177.7" stroke="#8a8983" stroke-width="0.6" stroke-opacity="0.55"/>
<line x1="902.0" y1="291.1" x2="699.4" y2="193.6" stroke="#8a8983" stroke-width="0.6" stroke-opacity="0.55"/>
<line x1="902.0" y1="308.1" x2="671.5" y2="351.2" stroke="#8a8983" stroke-width="0.6" stroke-opacity="0.55"/>
<line x1="902.0" y1="325.1" x2="681.6" y2="351.8" stroke="#8a8983" stroke-width="0.6" stroke-opacity="0.55"/>
<line x1="902.0" y1="342.2" x2="669.1" y2="385.6" stroke="#8a8983" stroke-width="0.6" stroke-opacity="0.55"/>
<line x1="902.0" y1="359.2" x2="734.3" y2="414.1" stroke="#8a8983" stroke-width="0.6" stroke-opacity="0.55"/>
<g font-size="10.5" font-family="ui-sans-serif,system-ui,sans-serif" fill="#0b0b0b">
<text x="222.0" y="286.0" text-anchor="end">Banque commerciale africaine</text>
<text x="222.0" y="303.0" text-anchor="end">Crédit foncier de l&#x27;Ouest-Africain</text>
<text x="222.0" y="320.0" text-anchor="end">Société commerciale des ports afric…</text>
<text x="222.0" y="337.0" text-anchor="end">Compagnie du Chemin de fer de Dak…</text>
<text x="222.0" y="354.0" text-anchor="end">Messageries du Sénégal</text>
<text x="898.0" y="277.5" text-anchor="start">Compagnie des Mines de Falémé-Ga…</text>
<text x="898.0" y="294.5" text-anchor="start">Mines de Falémé</text>
<text x="898.0" y="311.5" text-anchor="start">Messageries africaines</text>
<text x="898.0" y="328.5" text-anchor="start">Compagnie d&#x27;Électricité du Sénégal</text>
<text x="898.0" y="345.5" text-anchor="start">Salins du Sine Saloum</text>
<text x="898.0" y="362.5" text-anchor="start">Chaux et ciments du Sénégal</text>
</g><line x1="40" y1="588" x2="1080" y2="588" stroke="#e6e5e1" stroke-width="1"/><text x="1080" y="583" text-anchor="end" font-size="11" font-family="ui-sans-serif,system-ui,sans-serif" fill="#8a8983">5 firms in 2 components unconnected to the main graph</text><g font-size="11.5" font-family="ui-sans-serif,system-ui,sans-serif" fill="#8a8983"><text x="0" y="655.5">46 firms, 83 interlocks, 3 components (largest 41). Node area is weighted degree; the 11 best-connected are labelled. The other 26 firms in this territory&#x27;s bundle share no director</text><text x="0" y="670.5">with another and so have no place in an interlock network.</text></g></svg>