<svg xmlns="http://www.w3.org/2000/svg" viewBox="0 0 1340 711" width="1340" height="711" role="img" aria-label="Ossature entre communautés"><title>Ossature entre communautés</title><rect width="1340" height="711" fill="#fcfcfb"/><g stroke="#c9c8c2" fill="none">
<path d="M600.3 293.0L738.4 384.2" stroke-width="1.48" stroke-opacity="0.856"/>
<path d="M600.3 293.0L698.5 292.9" stroke-width="1.98" stroke-opacity="0.992"/>
<path d="M600.3 293.0L642.6 377.8M698.5 292.9L642.6 377.8" stroke-width="2.00" stroke-opacity="0.992"/>
<path d="M600.3 293.0L558.9 411.7" stroke-width="1.68" stroke-opacity="0.992"/>
<path d="M600.3 293.0L601.0 542.5" stroke-width="0.95" stroke-opacity="0.497"/>
<path d="M600.3 293.0L435.4 304.4" stroke-width="1.49" stroke-opacity="0.867"/>
<path d="M600.3 293.0L730.0 153.2" stroke-width="1.01" stroke-opacity="0.537"/>
<path d="M600.3 293.0L545.1 64.0" stroke-width="0.82" stroke-opacity="0.409"/>
<path d="M600.3 293.0L867.2 344.8" stroke-width="0.98" stroke-opacity="0.514"/>
<path d="M600.3 293.0L519.1 209.1" stroke-width="1.18" stroke-opacity="0.651"/>
<path d="M600.3 293.0L771.2 556.0" stroke-width="0.89" stroke-opacity="0.455"/>
<path d="M600.3 293.0L425.3 473.3" stroke-width="0.97" stroke-opacity="0.507"/>
<path d="M600.3 293.0L914.7 183.2" stroke-width="0.84" stroke-opacity="0.424"/>
<path d="M738.4 384.2L698.5 292.9" stroke-width="1.80" stroke-opacity="0.992"/>
<path d="M738.4 384.2L642.6 377.8" stroke-width="1.34" stroke-opacity="0.763"/>
<path d="M738.4 384.2L558.9 411.7" stroke-width="1.20" stroke-opacity="0.670"/>
<path d="M738.4 384.2L601.0 542.5" stroke-width="0.81" stroke-opacity="0.399"/>
<path d="M738.4 384.2L435.4 304.4" stroke-width="0.92" stroke-opacity="0.474"/>
<path d="M738.4 384.2L730.0 153.2" stroke-width="1.12" stroke-opacity="0.613"/>
<path d="M738.4 384.2L545.1 64.0M558.9 411.7L545.1 64.0" stroke-width="0.74" stroke-opacity="0.354"/>
<path d="M738.4 384.2L867.2 344.8" stroke-width="0.81" stroke-opacity="0.398"/>
<path d="M738.4 384.2L519.1 209.1" stroke-width="0.95" stroke-opacity="0.498"/>
<path d="M738.4 384.2L771.2 556.0" stroke-width="0.86" stroke-opacity="0.436"/>
<path d="M738.4 384.2L425.3 473.3" stroke-width="0.81" stroke-opacity="0.402"/>
<path d="M738.4 384.2L914.7 183.2" stroke-width="0.78" stroke-opacity="0.377"/>
<path d="M698.5 292.9L558.9 411.7" stroke-width="1.71" stroke-opacity="0.992"/>
<path d="M698.5 292.9L601.0 542.5" stroke-width="1.00" stroke-opacity="0.531"/>
<path d="M698.5 292.9L435.4 304.4M558.9 411.7L601.0 542.5" stroke-width="0.90" stroke-opacity="0.464"/>
<path d="M698.5 292.9L730.0 153.2" stroke-width="1.16" stroke-opacity="0.637"/>
<path d="M698.5 292.9L545.1 64.0" stroke-width="0.89" stroke-opacity="0.454"/>
<path d="M698.5 292.9L867.2 344.8" stroke-width="1.78" stroke-opacity="0.992"/>
<path d="M698.5 292.9L519.1 209.1" stroke-width="1.32" stroke-opacity="0.753"/>
<path d="M698.5 292.9L771.2 556.0" stroke-width="0.96" stroke-opacity="0.500"/>
<path d="M698.5 292.9L425.3 473.3" stroke-width="0.96" stroke-opacity="0.504"/>
<path d="M698.5 292.9L914.7 183.2" stroke-width="0.86" stroke-opacity="0.437"/>
<path d="M642.6 377.8L558.9 411.7" stroke-width="1.55" stroke-opacity="0.908"/>
<path d="M642.6 377.8L601.0 542.5" stroke-width="1.15" stroke-opacity="0.630"/>
<path d="M642.6 377.8L435.4 304.4" stroke-width="0.99" stroke-opacity="0.521"/>
<path d="M642.6 377.8L730.0 153.2" stroke-width="0.92" stroke-opacity="0.478"/>
<path d="M642.6 377.8L545.1 64.0" stroke-width="0.91" stroke-opacity="0.469"/>
<path d="M642.6 377.8L867.2 344.8" stroke-width="1.20" stroke-opacity="0.666"/>
<path d="M642.6 377.8L519.1 209.1" stroke-width="1.17" stroke-opacity="0.645"/>
<path d="M642.6 377.8L771.2 556.0" stroke-width="0.92" stroke-opacity="0.473"/>
<path d="M642.6 377.8L425.3 473.3" stroke-width="1.11" stroke-opacity="0.604"/>
<path d="M642.6 377.8L914.7 183.2" stroke-width="0.80" stroke-opacity="0.395"/>
<path d="M558.9 411.7L435.4 304.4" stroke-width="0.94" stroke-opacity="0.490"/>
<path d="M558.9 411.7L730.0 153.2M519.1 209.1L425.3 473.3" stroke-width="0.76" stroke-opacity="0.368"/>
<path d="M558.9 411.7L867.2 344.8" stroke-width="0.80" stroke-opacity="0.396"/>
<path d="M558.9 411.7L519.1 209.1" stroke-width="0.97" stroke-opacity="0.509"/>
<path d="M558.9 411.7L771.2 556.0" stroke-width="0.84" stroke-opacity="0.421"/>
<path d="M558.9 411.7L425.3 473.3" stroke-width="0.86" stroke-opacity="0.431"/>
<path d="M558.9 411.7L914.7 183.2M601.0 542.5L545.1 64.0" stroke-width="0.73" stroke-opacity="0.346"/>
<path d="M601.0 542.5L435.4 304.4" stroke-width="0.74" stroke-opacity="0.349"/>
<path d="M601.0 542.5L730.0 153.2M601.0 542.5L771.2 556.0" stroke-width="0.73" stroke-opacity="0.348"/>
<path d="M601.0 542.5L867.2 344.8M435.4 304.4L545.1 64.0" stroke-width="0.68" stroke-opacity="0.310"/>
<path d="M601.0 542.5L519.1 209.1" stroke-width="0.78" stroke-opacity="0.382"/>
<path d="M601.0 542.5L425.3 473.3" stroke-width="0.77" stroke-opacity="0.370"/>
<path d="M601.0 542.5L914.7 183.2" stroke-width="0.69" stroke-opacity="0.319"/>
<path d="M435.4 304.4L730.0 153.2" stroke-width="0.84" stroke-opacity="0.419"/>
<path d="M435.4 304.4L867.2 344.8" stroke-width="0.70" stroke-opacity="0.324"/>
<path d="M435.4 304.4L519.1 209.1" stroke-width="0.94" stroke-opacity="0.491"/>
<path d="M435.4 304.4L771.2 556.0" stroke-width="0.73" stroke-opacity="0.347"/>
<path d="M435.4 304.4L425.3 473.3" stroke-width="0.75" stroke-opacity="0.359"/>
<path d="M435.4 304.4L914.7 183.2" stroke-width="0.65" stroke-opacity="0.291"/>
<path d="M730.0 153.2L545.1 64.0" stroke-width="0.68" stroke-opacity="0.312"/>
<path d="M730.0 153.2L867.2 344.8" stroke-width="0.81" stroke-opacity="0.397"/>
<path d="M730.0 153.2L519.1 209.1" stroke-width="0.83" stroke-opacity="0.414"/>
<path d="M730.0 153.2L771.2 556.0" stroke-width="0.74" stroke-opacity="0.351"/>
<path d="M730.0 153.2L425.3 473.3" stroke-width="0.66" stroke-opacity="0.296"/>
<path d="M730.0 153.2L914.7 183.2M771.2 556.0L425.3 473.3" stroke-width="0.68" stroke-opacity="0.314"/>
<path d="M545.1 64.0L867.2 344.8M867.2 344.8L425.3 473.3" stroke-width="0.65" stroke-opacity="0.290"/>
<path d="M545.1 64.0L519.1 209.1" stroke-width="0.71" stroke-opacity="0.330"/>
<path d="M545.1 64.0L771.2 556.0" stroke-width="0.64" stroke-opacity="0.282"/>
<path d="M545.1 64.0L425.3 473.3M867.2 344.8L914.7 183.2" stroke-width="0.69" stroke-opacity="0.316"/>
<path d="M545.1 64.0L914.7 183.2" stroke-width="0.66" stroke-opacity="0.294"/>
<path d="M867.2 344.8L519.1 209.1" stroke-width="0.70" stroke-opacity="0.326"/>
<path d="M867.2 344.8L771.2 556.0" stroke-width="0.64" stroke-opacity="0.284"/>
<path d="M519.1 209.1L771.2 556.0" stroke-width="0.71" stroke-opacity="0.331"/>
<path d="M519.1 209.1L914.7 183.2" stroke-width="0.64" stroke-opacity="0.286"/>
<path d="M771.2 556.0L914.7 183.2" stroke-width="0.66" stroke-opacity="0.295"/>
<path d="M425.3 473.3L914.7 183.2" stroke-width="0.65" stroke-opacity="0.287"/>
</g>
<g>
<circle class="nd" data-id="C1" cx="600.3" cy="293.0" r="30.00" fill="#1baf7a" stroke="#fcfcfb" stroke-width="2"/>
<circle class="nd" data-id="C2" cx="738.4" cy="384.2" r="29.88" fill="#a9a8a2" stroke="#fcfcfb" stroke-width="2"/>
<circle class="nd" data-id="C3" cx="698.5" cy="292.9" r="27.38" fill="#eb6834" stroke="#fcfcfb" stroke-width="2"/>
<circle class="nd" data-id="C4" cx="642.6" cy="377.8" r="27.25" fill="#2a78d6" stroke="#fcfcfb" stroke-width="2"/>
<circle class="nd" data-id="C5" cx="558.9" cy="411.7" r="25.02" fill="#eb6834" stroke="#fcfcfb" stroke-width="2"/>
<circle class="nd" data-id="C6" cx="601.0" cy="542.5" r="23.78" fill="#2a78d6" stroke="#fcfcfb" stroke-width="2"/>
<circle class="nd" data-id="C7" cx="435.4" cy="304.4" r="21.54" fill="#2a78d6" stroke="#fcfcfb" stroke-width="2"/>
<circle class="nd" data-id="C8" cx="730.0" cy="153.2" r="20.67" fill="#a9a8a2" stroke="#fcfcfb" stroke-width="2"/>
<circle class="nd" data-id="C9" cx="545.1" cy="64.0" r="19.61" fill="#eb6834" stroke="#fcfcfb" stroke-width="2"/>
<circle class="nd" data-id="C10" cx="867.2" cy="344.8" r="19.61" fill="#eb6834" stroke="#fcfcfb" stroke-width="2"/>
<circle class="nd" data-id="C11" cx="519.1" cy="209.1" r="19.38" fill="#2a78d6" stroke="#fcfcfb" stroke-width="2"/>
<circle class="nd" data-id="C12" cx="771.2" cy="556.0" r="17.80" fill="#2a78d6" stroke="#fcfcfb" stroke-width="2"/>
<circle class="nd" data-id="C13" cx="425.3" cy="473.3" r="17.42" fill="#2a78d6" stroke="#fcfcfb" stroke-width="2"/>
<circle class="nd" data-id="C14" cx="914.7" cy="183.2" r="16.77" fill="#eb6834" stroke="#fcfcfb" stroke-width="2"/>
</g>
<line x1="232.0" y1="250.4" x2="524.4" y2="64.0" stroke="#8a8983" stroke-width="0.6" stroke-opacity="0.55"/>
<line x1="232.0" y1="269.1" x2="498.7" y2="209.1" stroke="#8a8983" stroke-width="0.6" stroke-opacity="0.55"/>
<line x1="232.0" y1="287.7" x2="569.3" y2="293.0" stroke="#8a8983" stroke-width="0.6" stroke-opacity="0.55"/>
<line x1="232.0" y1="306.3" x2="412.9" y2="304.4" stroke="#8a8983" stroke-width="0.6" stroke-opacity="0.55"/>
<line x1="232.0" y1="324.9" x2="532.9" y2="411.7" stroke="#8a8983" stroke-width="0.6" stroke-opacity="0.55"/>
<line x1="232.0" y1="343.6" x2="406.9" y2="473.3" stroke="#8a8983" stroke-width="0.6" stroke-opacity="0.55"/>
<line x1="232.0" y1="362.2" x2="576.2" y2="542.5" stroke="#8a8983" stroke-width="0.6" stroke-opacity="0.55"/>
<line x1="1108.0" y1="250.4" x2="751.7" y2="153.2" stroke="#8a8983" stroke-width="0.6" stroke-opacity="0.55"/>
<line x1="1108.0" y1="269.1" x2="932.5" y2="183.2" stroke="#8a8983" stroke-width="0.6" stroke-opacity="0.55"/>
<line x1="1108.0" y1="287.7" x2="726.8" y2="292.9" stroke="#8a8983" stroke-width="0.6" stroke-opacity="0.55"/>
<line x1="1108.0" y1="306.3" x2="887.8" y2="344.8" stroke="#8a8983" stroke-width="0.6" stroke-opacity="0.55"/>
<line x1="1108.0" y1="324.9" x2="670.9" y2="377.8" stroke="#8a8983" stroke-width="0.6" stroke-opacity="0.55"/>
<line x1="1108.0" y1="343.6" x2="769.3" y2="384.2" stroke="#8a8983" stroke-width="0.6" stroke-opacity="0.55"/>
<line x1="1108.0" y1="362.2" x2="790.0" y2="556.0" stroke="#8a8983" stroke-width="0.6" stroke-opacity="0.55"/>
<g font-size="11.5" font-family="ui-sans-serif,system-ui,sans-serif" fill="#0b0b0b">
<text x="236.0" y="254.1" text-anchor="end">C9 · Indochine (261)</text>
<text x="236.0" y="272.7" text-anchor="end">C11 · Maroc (255)</text>
<text x="236.0" y="291.4" text-anchor="end">C1 · Algérie (611)</text>
<text x="236.0" y="310.0" text-anchor="end">C7 · Maroc (315)</text>
<text x="236.0" y="328.6" text-anchor="end">C5 · Indochine (425)</text>
<text x="236.0" y="347.3" text-anchor="end">C13 · Maroc (206)</text>
<text x="236.0" y="365.9" text-anchor="end">C6 · Maroc (384)</text>
<text x="1104.0" y="254.1" text-anchor="start">C8 · Afrique occidentale française…</text>
<text x="1104.0" y="272.7" text-anchor="start">C14 · Indochine (191)</text>
<text x="1104.0" y="291.4" text-anchor="start">C3 · Indochine (509)</text>
<text x="1104.0" y="310.0" text-anchor="start">C10 · Indochine (261)</text>
<text x="1104.0" y="328.6" text-anchor="start">C4 · Maroc (504)</text>
<text x="1104.0" y="347.3" text-anchor="start">C2 · Afrique équatoriale française…</text>
<text x="1104.0" y="365.9" text-anchor="start">C12 · Maroc (215)</text>
</g><g font-size="12.5" font-family="ui-sans-serif,system-ui,sans-serif" fill="#52514e"><circle cx="5.0" cy="637.8" r="5" fill="#2a78d6"/><text x="16.0" y="642.0">Maroc</text><circle cx="87.9" cy="637.8" r="5" fill="#eb6834"/><text x="98.9" y="642.0">Indochine</text><circle cx="195.2" cy="637.8" r="5" fill="#1baf7a"/><text x="206.2" y="642.0">Algérie</text><circle cx="286.9" cy="637.8" r="5" fill="#a9a8a2"/><text x="297.9" y="642.0">autre territoire</text></g><g font-size="11.5" font-family="ui-sans-serif,system-ui,sans-serif" fill="#8a8983"><text x="0" y="673.5">Les 14 plus grandes communautés de Louvain, chacune un nœud dont l&#x27;aire est son nombre de firmes et la couleur son territoire dominant ; l&#x27;épaisseur d&#x27;un lien est le nombre d&#x27;administrateurs partagés entre deux</text><text x="0" y="688.5">communautés. Modularité 0,48 — une partition réelle, mais aucun bloc n&#x27;est isolé : le réseau se regroupe sans se cliver. Le territoire dominant est calculé hors « Empire (transversal) », qui est le label majoritaire</text><text x="0" y="703.5">presque partout et n&#x27;est pas un territoire mais l&#x27;aveu que la source n&#x27;en désigne aucun.</text></g></svg>