<svg xmlns="http://www.w3.org/2000/svg" viewBox="0 0 1120 458" width="1120" height="458" role="img" aria-label="French Guiana interlock network"><title>French Guiana interlock network</title><rect width="1120" height="458" fill="#fcfcfb"/><g stroke="#c9c8c2" fill="none">
<path d="M683.5 391.0L696.5 391.0" stroke-width="2.00" stroke-opacity="0.620"/>
<path d="M423.5 391.0L436.5 391.0M281.1 240.3L281.4 166.1M281.1 240.3L236.0 203.0M281.4 166.1L236.0 203.0" stroke-width="1.16" stroke-opacity="0.400"/>
<path d="M281.1 240.3L396.4 202.5M281.4 166.1L396.4 202.5M236.0 203.0L396.4 202.5M488.9 231.9L578.8 178.8M396.4 202.5L578.8 178.8M163.5 391.0L150.5 391.0M176.5 391.0L150.5 391.0M578.8 178.8L748.4 147.1M748.4 147.1L884.0 121.7M150.5 391.0L189.5 391.0" stroke-width="0.60" stroke-opacity="0.160"/>
<path d="M943.5 391.0L956.5 391.0M488.9 231.9L396.4 202.5M163.5 391.0L176.5 391.0" stroke-width="0.88" stroke-opacity="0.280"/>
</g>
<g>
<circle class="nd" data-id="gisementsorsaintelie" cx="683.5" cy="391.0" r="16.95" fill="#2a78d6" stroke="#fcfcfb" stroke-width="2"/>
<circle class="nd" data-id="saintelie" cx="696.5" cy="391.0" r="16.95" fill="#2a78d6" stroke="#fcfcfb" stroke-width="2"/>
<circle class="nd" data-id="commercialeantillesfrancaisesftanon" cx="423.5" cy="391.0" r="12.34" fill="#2a78d6" stroke="#fcfcfb" stroke-width="2"/>
<circle class="nd" data-id="representationcoloniale" cx="436.5" cy="391.0" r="12.34" fill="#2a78d6" stroke="#fcfcfb" stroke-width="2"/>
<circle class="nd" data-id="colonialeproduitstannants" cx="281.1" cy="240.3" r="18.15" fill="#2a78d6" stroke="#fcfcfb" stroke-width="2"/>
<circle class="nd" data-id="colonialetonnellerie" cx="281.4" cy="166.1" r="18.15" fill="#2a78d6" stroke="#fcfcfb" stroke-width="2"/>
<circle class="nd" data-id="theresia" cx="236.0" cy="203.0" r="18.15" fill="#2a78d6" stroke="#fcfcfb" stroke-width="2"/>
<circle class="nd" data-id="mataroni" cx="943.5" cy="391.0" r="10.01" fill="#2a78d6" stroke="#fcfcfb" stroke-width="2"/>
<circle class="nd" data-id="minesorguyane" cx="956.5" cy="391.0" r="10.01" fill="#2a78d6" stroke="#fcfcfb" stroke-width="2"/>
<circle class="nd" data-id="franceguyane" cx="488.9" cy="231.9" r="12.34" fill="#2a78d6" stroke="#fcfcfb" stroke-width="2"/>
<circle class="nd" data-id="miniereroura" cx="396.4" cy="202.5" r="16.95" fill="#2a78d6" stroke="#fcfcfb" stroke-width="2"/>
<circle class="nd" data-id="saintelieadieuvat" cx="163.5" cy="391.0" r="12.34" fill="#2a78d6" stroke="#fcfcfb" stroke-width="2"/>
<circle class="nd" data-id="stelieadieuvat" cx="176.5" cy="391.0" r="12.34" fill="#2a78d6" stroke="#fcfcfb" stroke-width="2"/>
<circle class="nd" data-id="cotonniereguyane" cx="578.8" cy="178.8" r="12.34" fill="#2a78d6" stroke="#fcfcfb" stroke-width="2"/>
<circle class="nd" data-id="sucriereagricoleguyane" cx="748.4" cy="147.1" r="10.01" fill="#2a78d6" stroke="#fcfcfb" stroke-width="2"/>
<circle class="nd" data-id="colonialeagricoleminiere" cx="150.5" cy="391.0" r="12.34" fill="#2a78d6" stroke="#fcfcfb" stroke-width="2"/>
<circle class="nd" data-id="unionminierehautemana" cx="189.5" cy="391.0" r="4.40" fill="#2a78d6" stroke="#fcfcfb" stroke-width="2"/>
<circle class="nd" data-id="comptoirsgenerauxguyane" cx="884.0" cy="121.7" r="4.40" fill="#2a78d6" stroke="#fcfcfb" stroke-width="2"/>
</g>
<line x1="218.0" y1="164.1" x2="262.2" y2="166.1" stroke="#8a8983" stroke-width="0.6" stroke-opacity="0.55"/>
<line x1="218.0" y1="181.1" x2="378.5" y2="202.5" stroke="#8a8983" stroke-width="0.6" stroke-opacity="0.55"/>
<line x1="218.0" y1="198.1" x2="216.8" y2="203.0" stroke="#8a8983" stroke-width="0.6" stroke-opacity="0.55"/>
<line x1="218.0" y1="215.1" x2="261.9" y2="240.3" stroke="#8a8983" stroke-width="0.6" stroke-opacity="0.55"/>
<line x1="218.0" y1="232.2" x2="150.2" y2="391.0" stroke="#8a8983" stroke-width="0.6" stroke-opacity="0.55"/>
<line x1="218.0" y1="249.2" x2="163.2" y2="391.0" stroke="#8a8983" stroke-width="0.6" stroke-opacity="0.55"/>
<line x1="902.0" y1="172.6" x2="502.2" y2="231.9" stroke="#8a8983" stroke-width="0.6" stroke-opacity="0.55"/>
<line x1="902.0" y1="189.6" x2="701.5" y2="391.0" stroke="#8a8983" stroke-width="0.6" stroke-opacity="0.55"/>
<line x1="902.0" y1="206.6" x2="714.5" y2="391.0" stroke="#8a8983" stroke-width="0.6" stroke-opacity="0.55"/>
<line x1="902.0" y1="223.6" x2="449.8" y2="391.0" stroke="#8a8983" stroke-width="0.6" stroke-opacity="0.55"/>
<line x1="902.0" y1="240.7" x2="436.8" y2="391.0" stroke="#8a8983" stroke-width="0.6" stroke-opacity="0.55"/>
<g font-size="10.5" font-family="ui-sans-serif,system-ui,sans-serif" fill="#0b0b0b">
<text x="222.0" y="167.5" text-anchor="end">Compagnie Coloniale de Tonnellerie</text>
<text x="222.0" y="184.5" text-anchor="end">Compagnie Minière de Roura</text>
<text x="222.0" y="201.5" text-anchor="end">« La Thérésia »</text>
<text x="222.0" y="218.5" text-anchor="end">Compagnie Coloniale des Produits ta…</text>
<text x="222.0" y="235.5" text-anchor="end">Société nouvelle Saint-Élie et Adieu…</text>
<text x="222.0" y="252.5" text-anchor="end">Société nouvelle de St-Élie et Adieu…</text>
<text x="898.0" y="176.0" text-anchor="start">Société France-Guyane</text>
<text x="898.0" y="193.0" text-anchor="start">Gisements d&#x27;or de Saint-Élie</text>
<text x="898.0" y="210.0" text-anchor="start">Saint-Élie</text>
<text x="898.0" y="227.0" text-anchor="start">Représentation coloniale</text>
<text x="898.0" y="244.0" text-anchor="start">Cie commerciale des Antilles frança…</text>
</g><line x1="40" y1="368" x2="1080" y2="368" stroke="#e6e5e1" stroke-width="1"/><text x="1080" y="363" text-anchor="end" font-size="11" font-family="ui-sans-serif,system-ui,sans-serif" fill="#8a8983">10 firms in 4 components unconnected to the main graph</text><g font-size="11.5" font-family="ui-sans-serif,system-ui,sans-serif" fill="#8a8983"><text x="0" y="435.5">18 firms, 18 interlocks, 5 components (largest 8). Node area is weighted degree; the 11 best-connected are labelled. The other 21 firms in this territory&#x27;s bundle share no director</text><text x="0" y="450.5">with another and so have no place in an interlock network.</text></g></svg>